<svg id="Layer_1" enable-background="new 0 0 512 512" height="512" viewBox="0 0 512 512" width="512" xmlns="http://www.w3.org/2000/svg"><path d="m505.966 328.336c-.895-8.564-3.086-16.236-6.522-22.813-6.07-14.963-26.103-28.08-61.222-40.078-1.595-.861-2.276-3.395-2.536-5.992 13.877-14.764 18.61-35.684 15.808-69.076-1.885-25.58-22.902-37.232-41.63-37.232-18.722 0-39.734 11.652-41.623 37.172-2.805 33.445 1.929 54.365 15.797 69.129-.255 2.41-.92 5.086-2.563 6.01-24.096 8.207-40.813 16.834-50.986 26.262-10.502-5.086-22.756-10.035-36.877-14.867-2.825-1.441-4.458-5.131-4.867-10.979 18.899-19.639 25.332-47.607 21.488-92.666-2.522-33.326-29.882-48.506-54.233-48.506-24.349 0-51.709 15.18-54.228 48.443-3.848 45.121 2.585 73.09 21.484 92.729-.407 5.848-2.042 9.537-4.866 10.979-14.132 4.834-26.396 9.789-36.902 14.879-10.181-9.328-26.889-17.957-50.953-26.266-1.651-.924-2.315-3.604-2.57-6.018 13.867-14.764 18.6-35.684 15.801-69.068-1.895-25.58-22.907-37.232-41.628-37.232-18.728 0-39.744 11.652-41.627 37.172-2.805 33.443 1.928 54.365 15.797 69.129-.258 2.41-.923 5.088-2.564 6.01-35.098 11.996-55.121 25.107-61.186 40.068-3.437 6.576-5.629 14.248-6.521 22.813-.025.209-.033.422-.033.639 0 11.713 9.528 21.238 21.239 21.238h102.306c-.671 3.209-1.232 6.506-1.577 9.957-.021.201-.027.404-.027.607 0 14.689 11.896 26.643 26.519 26.643h203.076c14.625 0 26.521-11.953 26.521-26.643 0-.203-.008-.406-.029-.607-.344-3.451-.905-6.748-1.575-9.957h102.304c11.714 0 21.24-9.525 21.24-21.238-.003-.219-.011-.432-.035-.641zm-478.725 9.639c-4.782 0-8.838-3.965-8.997-8.723.77-6.977 2.545-13.131 5.286-18.295.105-.211.206-.424.294-.641 3.066-7.857 14.971-20.027 54.239-33.4.194-.068.385-.141.571-.227 4.477-2.043 9.856-7.086 10.056-19.512.029-1.693-.648-3.326-1.874-4.506-12.486-12.037-16.704-30.377-14.104-61.391 1.325-17.889 15.73-25.898 29.425-25.898 13.691 0 28.1 8.01 29.427 25.957 2.592 30.955-1.625 49.295-14.112 61.332-1.225 1.18-1.901 2.813-1.872 4.506.2 12.422 5.577 17.465 10.054 19.51.18.084.364.156.551.225 19.79 6.811 34.336 13.846 43.585 20.982-17.557 10.064-28.525 20.695-33.104 32.088-1.355 2.521-2.518 5.213-3.58 7.992h-105.845zm330.296 37.207h-203.076c-7.781 0-14.128-6.309-14.277-14.119 1.015-9.805 3.507-18.4 7.414-25.559.125-.229.236-.467.332-.709 4.286-11.031 20.743-28.043 74.762-46.477.193-.066.387-.143.574-.229 8.033-3.684 12.182-11.953 12.328-24.574.021-1.686-.651-3.307-1.865-4.475-17.48-16.898-23.389-42.273-19.756-84.91 1.944-25.689 22.513-37.189 42.026-37.189 19.517 0 40.084 11.5 42.03 37.244 3.631 42.582-2.276 67.957-19.76 84.855-1.212 1.168-1.885 2.789-1.863 4.475.146 12.621 4.295 20.891 12.328 24.574.188.086.382.162.576.229 54.016 18.434 70.474 35.445 74.762 46.477.094.242.206.48.33.709 3.908 7.158 6.4 15.754 7.414 25.553-.158 7.687-6.631 14.125-14.279 14.125zm127.221-37.207h-105.844c-1.063-2.779-2.223-5.471-3.58-7.992-4.582-11.402-15.563-22.039-33.147-32.113 9.229-7.195 23.78-14.219 43.604-20.947.194-.072.388-.146.576-.234 4.477-2.045 9.854-7.088 10.054-19.51.029-1.693-.648-3.326-1.872-4.506-12.486-12.037-16.704-30.377-14.107-61.391 1.322-17.889 15.731-25.898 29.422-25.898 13.694 0 28.101 8.01 29.429 25.957 2.597 30.955-1.62 49.295-14.108 61.332-1.225 1.18-1.903 2.813-1.874 4.506.162 10.061 3.565 16.631 10.113 19.541.17.072.34.139.515.197 39.269 13.373 51.172 25.543 54.238 33.4.088.217.188.43.295.641 2.742 5.164 4.516 11.318 5.283 18.295-.158 4.757-4.214 8.722-8.997 8.722zm-390.063-199.832v-37.328c0-3.385 2.734-6.119 6.117-6.119h37.329c3.383 0 6.12 2.734 6.12 6.119 0 3.381-2.737 6.119-6.12 6.119h-31.209v31.209c0 3.385-2.738 6.121-6.12 6.121s-6.117-2.737-6.117-6.121zm273.043-37.329c0-3.385 2.736-6.119 6.121-6.119h37.328c3.383 0 6.118 2.734 6.118 6.119v37.328c0 3.385-2.735 6.121-6.118 6.121s-6.12-2.736-6.12-6.121v-31.209h-31.208c-3.384.001-6.121-2.738-6.121-6.119zm-223.476 310.372c0 3.383-2.737 6.119-6.12 6.119h-37.329c-3.383 0-6.117-2.736-6.117-6.119v-37.326c0-3.379 2.734-6.121 6.117-6.121 3.382 0 6.12 2.742 6.12 6.121v31.203h31.209c3.382 0 6.12 2.74 6.12 6.123zm273.044-37.327v37.326c0 3.383-2.735 6.119-6.118 6.119h-37.328c-3.385 0-6.121-2.736-6.121-6.119s2.736-6.123 6.121-6.123h31.208v-31.203c0-3.379 2.737-6.121 6.12-6.121s6.118 2.742 6.118 6.121z"/></svg>