<svg id="Layer_1" height="512" viewBox="0 0 512 512" width="512" xmlns="http://www.w3.org/2000/svg" data-name="Layer 1"><path d="m335.649 360.525a8 8 0 0 0 -6.776-5.485l-46.55-4.866-19.013-42.768a8 8 0 0 0 -14.62 0l-19.013 42.768-46.55 4.866a8 8 0 0 0 -4.518 13.9l34.8 31.3-9.756 45.775a8 8 0 0 0 11.828 8.593l40.519-23.42 40.52 23.424a8 8 0 0 0 11.828-8.593l-9.756-45.775 34.8-31.3a8 8 0 0 0 2.257-8.419zm-51.195 30.915a8 8 0 0 0 -2.475 7.617l6.97 32.7-28.949-16.735a8 8 0 0 0 -8.008 0l-28.945 16.733 6.97-32.7a8 8 0 0 0 -2.475-7.617l-24.858-22.358 33.252-3.476a8 8 0 0 0 6.478-4.707l13.586-30.547 13.582 30.55a8 8 0 0 0 6.478 4.707l33.252 3.476zm188.634 25.4a8 8 0 0 0 -6.776-5.486l-46.549-4.867-19.014-42.766a8 8 0 0 0 -14.62 0l-19.013 42.766-46.55 4.867a8 8 0 0 0 -4.517 13.906l34.8 31.3-9.756 45.774a8 8 0 0 0 11.828 8.594l40.52-23.424 40.52 23.424a8 8 0 0 0 11.828-8.594l-9.756-45.774 34.8-31.3a8 8 0 0 0 2.255-8.42zm-51.194 30.914a8 8 0 0 0 -2.475 7.616l6.969 32.7-28.945-16.732a8 8 0 0 0 -8.008 0l-28.944 16.732 6.968-32.7a8 8 0 0 0 -2.474-7.616l-24.858-22.354 33.252-3.476a8 8 0 0 0 6.478-4.707l13.582-30.55 13.582 30.55a8 8 0 0 0 6.478 4.707l33.252 3.476zm-376.206-36.4a8 8 0 0 0 -4.518 13.906l34.8 31.3-9.756 45.774a8 8 0 0 0 11.828 8.594l40.52-23.424 40.52 23.424a8 8 0 0 0 11.828-8.594l-9.757-45.774 34.8-31.3a8 8 0 0 0 -4.518-13.906l-46.55-4.867-19.013-42.766a8 8 0 0 0 -14.621 0l-19.014 42.766zm59.291 5.859 13.582-30.55 13.582 30.55a8 8 0 0 0 6.478 4.707l33.252 3.476-24.858 22.358a8 8 0 0 0 -2.475 7.616l6.969 32.7-28.945-16.732a8 8 0 0 0 -8.007 0l-28.945 16.73 6.97-32.7a8 8 0 0 0 -2.475-7.616l-24.858-22.352 33.251-3.48a8 8 0 0 0 6.479-4.707zm98.936-309.284h-84.671a22.759 22.759 0 0 0 -22.733 22.733v145.158a22.76 22.76 0 0 0 22.733 22.734h84.671a12.254 12.254 0 0 0 12.24-12.241v-2.67a46.835 46.835 0 0 0 20.67 4.764q1.23 0 2.472-.061h115.135a30.027 30.027 0 0 0 28.1-39.628 32.571 32.571 0 0 0 19.912-44.087 33.551 33.551 0 0 0 2.386-51.083 37.424 37.424 0 0 0 -25.022-52.142 8.077 8.077 0 0 0 -1.765-.228c-21.988-.379-35.985-.433-54.451-.205 12.7-26.316 12.357-45.533-1.076-70.33-9.451-17.443-21.516-27.475-35.866-29.805a103.357 103.357 0 0 0 -17.475-.753 9.867 9.867 0 0 0 -7.405 3.87c-4.287 5.489-3.988 15.159 1.282 41.387.437 2.174.888 4.421.986 5.154 2.657 20.02-13.313 42.355-27.4 62.06q-1.816 2.538-3.592 5.037c-4.016 5.663-6.7 6.36-12.591 7.889-1.316.342-2.752.718-4.3 1.176v-6.489a12.254 12.254 0 0 0 -12.24-12.24zm-3.76 174.625h-80.911a6.741 6.741 0 0 1 -6.733-6.734v-145.158a6.74 6.74 0 0 1 6.733-6.733h80.911zm24.319-141.585c6.994-1.817 14.227-3.7 21.62-14.12q1.754-2.474 3.556-4.987c15.814-22.117 33.738-47.184 30.248-73.471-.167-1.26-.562-3.225-1.16-6.2-2.539-12.636-3.872-21.4-3.984-26.179a73.608 73.608 0 0 1 9.33.62c9.2 1.494 17.4 8.771 24.364 21.632 9.62 17.76 12.478 32.13.049 57.155a14.931 14.931 0 0 0 13.571 21.574c18.878-.248 32.8-.208 54.734.166a21.413 21.413 0 0 1 11.09 33.629 8 8 0 0 0 2.489 11.882 17.584 17.584 0 0 1 -1.943 31.732 8 8 0 0 0 -3.154 12.572 16.642 16.642 0 0 1 -15.273 27.149 8 8 0 0 0 -6.558 13.861 13.969 13.969 0 0 1 -9.1 24.363h-115.261c-.143 0-.285 0-.428.011-8.152.442-15.54-2.031-22.509-7.531v-121.227a60.325 60.325 0 0 1 8.319-2.631z"/></svg>