<svg id="_x3C_Layer_x3E_" height="512" viewBox="0 0 32 32" width="512" xmlns="http://www.w3.org/2000/svg"><g id="Group_x2C__leader_x2C__leadership_x2C__people_x2C__team_x2C__teamwork_x2C__nation"><g id="XMLID_5987_"><g id="XMLID_6191_"><g id="XMLID_6192_"><g id="XMLID_6193_"><g><path d="m19.5 6c-1.378 0-2.5-1.121-2.5-2.5s1.122-2.5 2.5-2.5 2.5 1.121 2.5 2.5-1.122 2.5-2.5 2.5zm0-4c-.827 0-1.5.673-1.5 1.5s.673 1.5 1.5 1.5 1.5-.673 1.5-1.5-.673-1.5-1.5-1.5z" fill="rgb(0,0,0)"/></g></g></g></g></g><g id="XMLID_6206_"><g id="XMLID_6209_"><g id="XMLID_6210_"><g id="XMLID_6215_"><g><path d="m11.5 6c-1.378 0-2.5-1.121-2.5-2.5s1.122-2.5 2.5-2.5 2.5 1.121 2.5 2.5-1.122 2.5-2.5 2.5zm0-4c-.827 0-1.5.673-1.5 1.5s.673 1.5 1.5 1.5 1.5-.673 1.5-1.5-.673-1.5-1.5-1.5z" fill="rgb(0,0,0)"/></g></g></g></g></g><g id="XMLID_5945_"><g id="XMLID_5948_"><g id="XMLID_5958_"><path d="m26.5 31c-.276 0-.5-.224-.5-.5v-6c0-.276.224-.5.5-.5s.5.224.5.5c0 .275.224.5.5.5s.5-.225.5-.5v-7c0-1.125-.923-2.5-2-2.5h-3.5c-.276 0-.5-.224-.5-.5s.224-.5.5-.5h3.5c1.689 0 3 1.882 3 3.5v7c0 .827-.673 1.5-1.5 1.5-.175 0-.344-.03-.5-.086v4.586c0 .276-.224.5-.5.5z" fill="rgb(0,0,0)"/></g><g id="XMLID_5953_"><path id="XMLID_5954_" d="m20.5 10c0-1.654 1.346-3 3-3s3 1.346 3 3-1.346 3-3 3-3-1.346-3-3zm1 0c0 1.104.896 2 2 2s2-.896 2-2c0-1.103-.896-2-2-2s-2 .897-2 2z" fill="rgb(0,0,0)"/></g><g id="XMLID_5949_" fill="rgb(0,0,0)"><path id="XMLID_5951_" d="m26.5 25c.276 0 .5-.224.5-.5v-6c0-.276-.224-.5-.5-.5s-.5.224-.5.5v6c0 .276.224.5.5.5z"/><path id="XMLID_5950_" d="m23.5 31c.276 0 .5-.224.5-.5v-4c0-.276-.224-.5-.5-.5s-.5.224-.5.5v4c0 .276.224.5.5.5z"/></g></g></g><g id="XMLID_6263_"><g id="XMLID_6266_"><g id="XMLID_6390_"><path d="m4.5 31c-.276 0-.5-.224-.5-.5v-4.586c-.156.056-.325.086-.5.086-.827 0-1.5-.673-1.5-1.5v-7c0-1.618 1.311-3.5 3-3.5h3.5c.276 0 .5.224.5.5s-.224.5-.5.5h-3.5c-1.077 0-2 1.375-2 2.5v7c0 .275.224.5.5.5s.5-.225.5-.5c0-.276.224-.5.5-.5s.5.224.5.5v6c0 .276-.224.5-.5.5z" fill="rgb(0,0,0)"/></g><g id="XMLID_6379_"><path id="XMLID_6380_" d="m7.5 13c-1.654 0-3-1.346-3-3s1.346-3 3-3 3 1.346 3 3-1.346 3-3 3zm0-5c-1.104 0-2 .897-2 2 0 1.104.896 2 2 2s2-.896 2-2c0-1.103-.896-2-2-2z" fill="rgb(0,0,0)"/></g><g id="XMLID_6267_" fill="rgb(0,0,0)"><path id="XMLID_6202_" d="m4.5 25c-.276 0-.5-.224-.5-.5v-6c0-.276.224-.5.5-.5s.5.224.5.5v6c0 .276-.224.5-.5.5z"/><path id="XMLID_6268_" d="m7.5 31c-.276 0-.5-.224-.5-.5v-4c0-.276.224-.5.5-.5s.5.224.5.5v4c0 .276-.224.5-.5.5z"/></g></g></g><g id="XMLID_6363_" fill="rgb(0,0,0)"><g id="XMLID_6368_"><path d="m18.5 31c-.276 0-.5-.224-.5-.5v-11c0-.276.224-.5.5-.5.533 0 1.03-.287 1.298-.749.132-.227.202-.486.202-.751v-1c0-1.379-1.122-2.5-2.5-2.5h-4.5c-1.103 0-2 .897-2 2v1.5c0 .827.673 1.5 1.5 1.5.276 0 .5.224.5.5v11c0 .276-.224.5-.5.5s-.5-.224-.5-.5v-10.55c-1.14-.232-2-1.243-2-2.45v-1.5c0-1.654 1.346-3 3-3h4.5c1.93 0 3.5 1.57 3.5 3.5v1c0 .44-.116.874-.337 1.253-.361.622-.972 1.054-1.663 1.196v10.551c0 .276-.224.5-.5.5z"/><path id="XMLID_6371_" d="m15.5 12c-1.654 0-3-1.346-3-3s1.346-3 3-3 3 1.346 3 3-1.346 3-3 3zm0-5c-1.104 0-2 .897-2 2 0 1.104.896 2 2 2s2-.896 2-2c0-1.103-.896-2-2-2z"/></g><path d="m18.5 18.5c-.276 0-.5-.224-.5-.5v-.319c0-.149-.063-.285-.177-.382s-.259-.135-.404-.111l-3.672.611c-.438.07-.879-.05-1.216-.335-.338-.285-.531-.703-.531-1.145 0-.276.224-.5.5-.5s.5.224.5.5c0 .149.063.285.177.382.114.096.26.138.406.111l3.671-.611c.435-.072.878.048 1.215.334.337.285.531.703.531 1.146v.319c0 .276-.224.5-.5.5z"/><path d="m15.5 31c-.276 0-.5-.224-.5-.5v-6.5c0-.276.224-.5.5-.5s.5.224.5.5v6.5c0 .276-.224.5-.5.5z"/><path d="m18.5 20h-4c-.276 0-.5-.224-.5-.5s.224-.5.5-.5h4c.276 0 .5.224.5.5s-.224.5-.5.5z"/></g></g></svg>