<svg height="512" viewBox="0 0 48 48" width="512" xmlns="http://www.w3.org/2000/svg"><path d="m32.71 29.17-8.58 4.95s-8.82-5.12-8.92-5.12a6 6 0 0 0 -11.21 3v11a1 1 0 0 0 1 1h10a1 1 0 0 0 1-1v-6.65l5.77 3.33a3 3 0 0 0 2.36.28 3 3 0 0 0 2.37-.28l5.5-3.17v6.49a1 1 0 0 0 1 1h10a1 1 0 0 0 1-1v-11a6 6 0 0 0 -11.29-2.83zm-26.71 2.83a4 4 0 0 1 8 0v10h-8zm28 0a4 4 0 0 1 8 0v10h-8zm-18-.27v2.31l6.77 3.96a1 1 0 0 0 1.36-.37 1 1 0 0 0 -.36-1.36zm16 .16-6.2 3.58a3.07 3.07 0 0 1 .44 2.05l5.76-3.32zm-10.29-2.6-2-2a1 1 0 0 0 -1.42 1.42l2 2a1 1 0 0 0 1.42-1.42zm6 1.42 2-2a1 1 0 0 0 -1.42-1.42l-2 2a1 1 0 0 0 1.42 1.42zm-4.71-4.71v3a1 1 0 0 0 2 0v-3a1 1 0 0 0 -2 0zm-13-11a5 5 0 1 0 5 5 5 5 0 0 0 -5-5zm28 0a5 5 0 1 0 5 5 5 5 0 0 0 -5-5zm-28 2a3 3 0 1 1 -3 3 3 3 0 0 1 3-3zm28 0a3 3 0 1 1 -3 3 3 3 0 0 1 3-3zm-14-13a9 9 0 1 0 9 9 9 9 0 0 0 -9-9zm0 2a7 7 0 1 1 -7 7 7 7 0 0 1 7-7zm-1 3.05a2.5 2.5 0 0 0 -2 2.45 2.5 2.5 0 0 0 2.5 2.5h1a.5.5 0 0 1 0 1h-2.5a1 1 0 0 0 0 2h1v1a1 1 0 0 0 2 0v-1a2.5 2.5 0 0 0 -.5-5h-1a.5.5 0 0 1 0-1h2.5a1 1 0 0 0 0-2h-1v-1a1 1 0 0 0 -2 0z" fill-rule="evenodd"/></svg>