<svg id="b" viewBox="0 0 48 48" xmlns="http://www.w3.org/2000/svg" data-name="Ebene 2"><path d="m44 44c-.9 0-1.29-.31-1.87-.78-.68-.54-1.52-1.22-3.12-1.22s-2.45.68-3.12 1.22c-.59.47-.98.78-1.87.78s-1.29-.31-1.87-.78c-.68-.54-1.52-1.22-3.12-1.22s-2.45.68-3.12 1.22c-.59.47-.98.78-1.88.78s-1.29-.31-1.87-.78c-.68-.54-1.52-1.22-3.12-1.22s-2.45.68-3.12 1.22c-.59.47-.98.78-1.88.78s-1.31-.33-1.88-.78c-.68-.54-1.52-1.22-3.13-1.22s-2.45.68-3.13 1.22c-.57.45-.98.78-1.88.78-.55 0-1 .45-1 1s.45 1 1 1c1.6 0 2.45-.68 3.13-1.22.57-.45.98-.78 1.88-.78s1.31.33 1.88.78c.68.54 1.52 1.22 3.13 1.22s2.45-.68 3.12-1.22c.59-.47.98-.78 1.88-.78s1.29.31 1.87.78c.68.54 1.52 1.22 3.12 1.22s2.45-.68 3.12-1.22c.59-.47.98-.78 1.87-.78s1.29.31 1.87.78c.68.54 1.52 1.22 3.12 1.22s2.45-.68 3.12-1.22c.59-.47.98-.78 1.87-.78s1.29.31 1.87.78c.68.54 1.52 1.22 3.12 1.22.55 0 1-.45 1-1s-.45-1-1-1z"/><path d="m4 41c1.6 0 2.45-.68 3.13-1.22.57-.45.98-.78 1.88-.78s1.31.33 1.88.78c.68.54 1.52 1.22 3.13 1.22s2.45-.68 3.12-1.22c.59-.47.98-.78 1.88-.78s1.29.31 1.87.78c.68.54 1.52 1.22 3.12 1.22s2.45-.68 3.12-1.22c.59-.47.98-.78 1.87-.78s1.29.31 1.87.78c.66.53 1.48 1.17 2.99 1.21h.05.02.06c1.6 0 2.45-.68 3.12-1.22.59-.47.98-.78 1.87-.78s1.29.31 1.87.78c.68.54 1.52 1.22 3.12 1.22.55 0 1-.45 1-1s-.45-1-1-1c-.9 0-1.29-.31-1.87-.78-.68-.54-1.52-1.22-3.12-1.22s-2.45.68-3.12 1.22c-.18.14-.34.27-.51.38l3.46-11.87c.37-1.24-.21-2.56-1.39-3.15l-10.7-5.15c-.39-.19-.81-.32-1.23-.4v-4.03h3v2c0 .55.45 1 1 1s1-.45 1-1v-2h3v5c0 .55.45 1 1 1s1-.45 1-1v-5.43c0-.87-.7-1.57-1.57-1.57h-13.43v-7.99h3v2c0 .55.45 1 1 1s1-.45 1-1v-2h3v5c0 .55.45 1 1 1s1-.45 1-1v-5.43c0-.86-.7-1.57-1.57-1.57h-8.86c-.86 0-1.57.7-1.57 1.57v8.43h-3.43c-.87 0-1.57.7-1.57 1.57v8.86c0 .07.01.14.02.21l-1.95.94c-1.17.58-1.76 1.9-1.39 3.14l3.57 12.26c-.72-.06-1.12-.35-1.63-.76-.68-.54-1.52-1.22-3.13-1.22s-2.45.68-3.13 1.22c-.57.45-.98.78-1.88.78-.55 0-1 .45-1 1s.45 1 1 1zm14.51-27v2c0 .55.45 1 1 1s1-.45 1-1v-2h3v4.03c-.42.08-.84.21-1.23.4l-6.77 3.26v-7.69zm-6.06 11.38 2.98-1.44s.02 0 .03-.01c.01 0 .03-.01.04-.02l7.61-3.67c.12-.06.25-.09.37-.13v9.99c0 .55.45 1 1 1s1-.45 1-1v-9.99c.12.04.25.07.36.13l10.68 5.15c.29.14.44.48.35.78l-3.7 12.71c-.4-.13-.7-.35-1.08-.65-.68-.54-1.52-1.22-3.12-1.22s-2.45.68-3.12 1.22c-.59.47-.98.78-1.88.78s-1.29-.31-1.87-.78c-.68-.54-1.52-1.22-3.12-1.22s-2.45.68-3.12 1.22c-.07.06-.14.11-.21.16l-3.57-12.23c-.09-.3.06-.63.35-.77z"/></svg>